<svg aria-hidden="true" style="position: absolute; width: 0; height: 0; overflow: hidden;" version="1.1" xmlns="http://www.w3.org/2000/svg" xmlns:xlink="http://www.w3.org/1999/xlink">
<defs>
<symbol id="icon-alarm" viewBox="0 0 33 32">
<path d="M16.344 4.781c-2.267 0-4.483 0.658-6.367 1.891-1.863 1.227-3.315 2.941-4.192 4.962l-0.028 0.073c-0.552 1.267-0.873 2.743-0.873 4.294 0 0.774 0.080 1.53 0.232 2.26l-0.012-0.071c0.476 2.271 1.586 4.23 3.135 5.742l0.002 0.002c1.564 1.527 3.563 2.614 5.794 3.058l0.073 0.012c2.223 0.432 4.528 0.211 6.621-0.638 2.124-0.872 3.873-2.296 5.119-4.094l0.025-0.038c1.207-1.744 1.929-3.904 1.931-6.233v-0c-0.009-3.109-1.294-5.916-3.358-7.927l-0.002-0.002c-2.088-2.035-4.944-3.29-8.093-3.29-0.002 0-0.005 0-0.007 0h0zM25.878 16.438h1.021c-0.115 2.551-1.152 4.84-2.782 6.561l0.004-0.005-0.718-0.703c-0.081-0.080-0.192-0.129-0.314-0.129-0.001 0-0.002 0-0.003 0h0c-0.123 0-0.235 0.049-0.317 0.129l0-0c-0.080 0.079-0.129 0.188-0.13 0.309v0c0 0.001 0 0.001 0 0.002 0 0.12 0.050 0.229 0.13 0.307l0 0 0.719 0.703c-1.776 1.602-4.109 2.616-6.677 2.72l-0.021 0.001v-1.002c-0-0.121-0.050-0.23-0.131-0.309l-0-0c-0.081-0.080-0.193-0.129-0.316-0.129s-0.234 0.049-0.316 0.129l0-0c-0.081 0.078-0.131 0.188-0.131 0.309v1.001c-2.589-0.105-4.922-1.119-6.707-2.729l0.009 0.008 0.718-0.703c0.081-0.079 0.131-0.188 0.131-0.309v-0c0-0 0-0 0-0.001 0-0.121-0.050-0.23-0.13-0.308l-0-0c-0.081-0.080-0.192-0.129-0.314-0.129-0.001 0-0.001 0-0.002 0h0c-0.123 0-0.235 0.049-0.317 0.129l0-0-0.718 0.703c-1.626-1.716-2.663-4.005-2.778-6.534l-0.001-0.022h1.021c0 0 0 0 0.001 0 0.123 0 0.234-0.049 0.316-0.129l-0 0c0.080-0.079 0.13-0.188 0.13-0.309s-0.050-0.231-0.13-0.309l-0-0c-0.081-0.080-0.193-0.129-0.316-0.129h-1.021c0.116-2.551 1.152-4.84 2.782-6.56l-0.004 0.005 0.719 0.703c0.081 0.080 0.193 0.129 0.316 0.129s0.234-0.049 0.316-0.129l-0 0c0.081-0.079 0.131-0.188 0.131-0.31s-0.050-0.231-0.13-0.31l-0-0-0.718-0.703c1.776-1.601 4.108-2.615 6.676-2.719l0.021-0.001v1c0 0.121 0.050 0.231 0.13 0.31l0 0c0.081 0.080 0.193 0.129 0.316 0.129s0.235-0.049 0.316-0.129l-0 0c0.081-0.079 0.131-0.188 0.131-0.31v0-0.999c2.589 0.105 4.922 1.118 6.707 2.728l-0.009-0.008-0.718 0.703c-0.081 0.079-0.131 0.189-0.131 0.311 0 0.060 0.012 0.117 0.034 0.169l-0.001-0.003c0.046 0.109 0.132 0.193 0.239 0.236l0.003 0.001c0.050 0.021 0.109 0.033 0.17 0.033 0.123 0 0.235-0.049 0.317-0.128l-0 0 0.719-0.703c1.626 1.716 2.663 4.005 2.778 6.534l0.001 0.022h-1.022c-0 0-0 0-0.001 0-0.123 0-0.235 0.049-0.316 0.129l0-0c-0.080 0.079-0.13 0.188-0.13 0.309s0.050 0.231 0.13 0.309l0 0c0.081 0.079 0.192 0.128 0.315 0.128 0.001 0 0.001 0 0.002 0h-0z"></path>
<path d="M21.419 15.562h-2.821c-0.096-0.455-0.319-0.848-0.63-1.152l-0-0c-0.314-0.306-0.714-0.524-1.161-0.614l-0.015-0.002v-4.324c-0-0.121-0.051-0.231-0.131-0.31l-0-0c-0.081-0.079-0.193-0.128-0.316-0.128s-0.234 0.049-0.316 0.128l0-0c-0.081 0.078-0.131 0.188-0.131 0.309v4.325c-0.425 0.084-0.797 0.274-1.098 0.541l0.002-0.002c-0.309 0.274-0.536 0.624-0.657 1.014-0.063 0.195-0.099 0.42-0.099 0.654 0 0.194 0.025 0.383 0.072 0.562l-0.003-0.015c0.101 0.395 0.31 0.756 0.605 1.045s0.663 0.493 1.067 0.592 0.828 0.088 1.226-0.030c0.398-0.119 0.756-0.341 1.035-0.643s0.47-0.674 0.551-1.072h2.821c0 0 0 0 0.001 0 0.123 0 0.235-0.049 0.316-0.129l-0 0c0.080-0.079 0.13-0.188 0.13-0.309s-0.050-0.231-0.13-0.309l-0-0c-0.081-0.080-0.193-0.129-0.316-0.129-0 0-0 0-0.001 0h0zM16.344 17.375c-0 0-0 0-0 0-0.29 0-0.56-0.087-0.785-0.235l0.005 0.003c-0.229-0.15-0.407-0.361-0.515-0.609l-0.003-0.009c-0.068-0.156-0.108-0.337-0.108-0.528 0-0.381 0.158-0.725 0.412-0.97l0-0c0.257-0.249 0.608-0.402 0.995-0.402 0.193 0 0.377 0.038 0.545 0.107l-0.010-0.003c0.257 0.104 0.476 0.28 0.631 0.507 0.147 0.214 0.236 0.478 0.236 0.764 0 0.381-0.157 0.726-0.411 0.972l-0 0c-0.256 0.249-0.606 0.403-0.992 0.403-0 0-0.001 0-0.001 0h0z"></path>
<path d="M31.967 2.237l-1.564-1.531c-0.446-0.434-1.056-0.701-1.728-0.701-0.001 0-0.003 0-0.004 0h0c-0.649 0-1.273 0.253-1.732 0.701l-1.226 1.2c-0.080 0.079-0.13 0.188-0.131 0.309v0c0 0 0 0 0 0.001 0 0.121 0.050 0.231 0.131 0.309l0 0 1.159 1.135-1.718 1.683c-2.392-1.908-5.459-3.062-8.795-3.062-0.005 0-0.011 0-0.016 0h0.001c-3.209 0-6.32 1.081-8.81 3.062l-1.719-1.683 1.159-1.136c0.080-0.079 0.13-0.188 0.131-0.309v-0c0-0 0-0 0-0.001 0-0.121-0.050-0.231-0.131-0.309l-0-0-1.226-1.2c-0.446-0.434-1.056-0.701-1.728-0.701-0.002 0-0.003 0-0.005 0h0c-0.649 0-1.272 0.252-1.731 0.701l-1.564 1.532c-0.442 0.431-0.716 1.031-0.717 1.696v0c0 0.636 0.258 1.245 0.717 1.695l1.226 1.2c0.081 0.080 0.192 0.129 0.314 0.129 0.001 0 0.001 0 0.002 0h-0c0.123-0 0.235-0.049 0.317-0.129l-0 0 1.159-1.135 1.72 1.681c-1.944 2.322-3.125 5.342-3.125 8.637 0 0.199 0.004 0.397 0.013 0.593l-0.001-0.028c0.161 3.489 1.618 6.609 3.897 8.915l-0.001-0.001-2.202 4.839c-0.067 0.142-0.105 0.309-0.105 0.484 0 0.241 0.073 0.464 0.198 0.65l-0.003-0.004c0.111 0.166 0.261 0.303 0.439 0.397s0.376 0.144 0.579 0.144h1.118c0.234 0 0.464-0.067 0.66-0.192s0.353-0.303 0.448-0.512l1.643-3.609c2.089 1.277 4.617 2.032 7.322 2.032 0.003 0 0.006 0 0.009 0h-0c2.589 0 5.126-0.704 7.331-2.032l1.642 3.609c0.095 0.209 0.251 0.387 0.448 0.512s0.425 0.192 0.659 0.192h1.118c0.202 0 0.401-0.049 0.579-0.144s0.329-0.231 0.439-0.398c0.122-0.182 0.195-0.406 0.195-0.647 0-0.175-0.038-0.341-0.107-0.49l0.003 0.007-2.202-4.839c2.278-2.304 3.735-5.424 3.895-8.883l0.001-0.030c0.008-0.169 0.012-0.366 0.012-0.565 0-3.296-1.181-6.315-3.143-8.659l0.017 0.021 1.719-1.684 1.159 1.136c0.081 0.079 0.191 0.128 0.313 0.128 0.001 0 0.002 0 0.004 0h-0c0.123-0 0.234-0.049 0.316-0.128l-0 0 1.226-1.2c0.458-0.45 0.717-1.059 0.717-1.695s-0.258-1.245-0.717-1.695zM2.262 5.9l-0.908-0.891c-0.28-0.274-0.454-0.655-0.455-1.077v-0c0-0.404 0.164-0.791 0.455-1.077l1.563-1.53c0.291-0.285 0.688-0.445 1.1-0.445s0.808 0.16 1.099 0.445l0.911 0.89-3.765 3.684zM4.369 5.075l0.813-0.796 1.673 1.638c-0.282 0.254-0.553 0.519-0.813 0.796l-1.673-1.638zM6.556 30.94c-0.053 0.11-0.164 0.184-0.291 0.185h-1.119c-0.111-0-0.209-0.056-0.267-0.141l-0.001-0.001c-0.032-0.048-0.051-0.107-0.051-0.17 0-0.046 0.010-0.090 0.029-0.13l-0.001 0.002 2.067-4.541c0.424 0.376 0.872 0.727 1.339 1.050l-1.705 3.745zM27.811 30.983c-0.057 0.086-0.153 0.143-0.263 0.143-0.002 0-0.004-0-0.006-0h-1.118c-0.001 0-0.003 0-0.005 0-0.127 0-0.236-0.075-0.286-0.183l-0.001-0.002-1.704-3.745c0.468-0.323 0.915-0.675 1.34-1.051l2.067 4.541c0.017 0.037 0.027 0.080 0.027 0.126 0 0.064-0.020 0.124-0.054 0.173l0.001-0.001h0.001zM16.345 28.844c-2.595 0-5.132-0.753-7.289-2.165-2.133-1.404-3.796-3.366-4.801-5.681l-0.032-0.083c-0.631-1.45-0.998-3.139-0.998-4.914 0-0.887 0.092-1.753 0.266-2.588l-0.014 0.082c0.544-2.599 1.814-4.843 3.587-6.574l0.002-0.002c1.79-1.748 4.080-2.993 6.634-3.501l0.084-0.014c0.769-0.157 1.654-0.247 2.559-0.247 1.81 0 3.536 0.359 5.11 1.010l-0.089-0.033c2.432 0.999 4.434 2.628 5.86 4.687l0.028 0.043c1.382 1.996 2.209 4.469 2.211 7.135v0.001c-0.004 3.405-1.387 6.67-3.847 9.078s-5.795 3.762-9.273 3.767zM26.646 6.712c-0.259-0.277-0.53-0.542-0.813-0.796l1.674-1.639 0.813 0.796-1.673 1.638zM31.337 5.008l-0.91 0.891-3.765-3.684 0.911-0.89c0.292-0.285 0.688-0.445 1.1-0.445s0.808 0.16 1.1 0.445l1.562 1.531c0.291 0.285 0.455 0.672 0.455 1.076s-0.163 0.791-0.455 1.078h0.002z"></path>
</symbol>
<symbol id="icon-bargraph" viewBox="0 0 32 32">
<path d="M30.047 12.771h-5.626v17.354h-1.874v-13.267h-5.626v13.267h-1.872v-16.86h-5.626v16.86h-1.842v-9.348h-5.629v9.348h-1.952v1.875h32v-1.875h-1.953v-17.354zM5.703 22.652v1.875h-1.874v-1.875h1.874zM3.829 30.125v-3.723h1.874v3.723h-1.874zM13.172 15.14v1.875h-1.873v-1.875h1.873zM11.299 30.125v-11.235h1.873v11.235h-1.873zM20.67 18.733v1.875h-1.874v-1.875h1.874zM18.796 30.125v-7.642h1.874v7.642h-1.874zM28.17 14.646v1.875h-1.874v-1.875h1.874zM26.296 30.125v-11.729h1.874v11.729h-1.874z"></path>
<path d="M26.387 0v1.875h2.411l-8.64 8.64-7.157-7.158-12.995 12.995 1.327 1.326 11.668-11.669 7.158 7.158 9.964-9.966v2.42h1.877v-5.622h-5.613z"></path>
</symbol>
<symbol id="icon-digital-marketing" viewBox="0 0 32 32">
<path d="M11.734 13.334v-11.734c0-0.906-0.694-1.6-1.6-1.6h-5.334c-0.906 0-1.6 0.694-1.6 1.6v11.734c0 0.906 0.694 1.6 1.6 1.6h5.334c0.906 0 1.6-0.694 1.6-1.6zM10.666 11.734h-6.4v-8.534h6.4v8.534zM4.8 1.066h5.334c0.32 0 0.533 0.214 0.533 0.534v0.534h-6.4v-0.534c0-0.32 0.214-0.534 0.534-0.534zM4.266 13.334v-0.534h6.4v0.534c0 0.32-0.213 0.533-0.533 0.533h-5.334c-0.32 0-0.534-0.213-0.534-0.533z"></path>
<path d="M9.92 7.466l-4.054-3.253v6.506l4.054-3.254zM6.934 6.454l1.28 1.013-1.28 1.014v-2.026zM14.934 9.066c0-3.52 2.88-6.4 6.4-6.4 1.493 0 2.986 0.534 4.16 1.494l-1.174 1.174c-2.080-1.654-5.066-1.334-6.72 0.746-0.66 0.808-1.062 1.85-1.066 2.985v0.001h1.066c-0-0.007-0-0.015-0-0.023 0-2.049 1.661-3.71 3.71-3.71 0.008 0 0.016 0 0.025 0h-0.001c0.8 0 1.6 0.266 2.24 0.746l-1.174 1.174c-0.299-0.2-0.667-0.32-1.062-0.32-0.001 0-0.003 0-0.004 0h0c-1.177 0.003-2.13 0.956-2.134 2.132v0h1.066c0-0.586 0.48-1.066 1.067-1.066 0.106 0 0.159 0 0.266 0.054l-0.64 0.64 0.746 0.746 0.64-0.64c0 0.106 0.054 0.16 0.054 0.266 0 0.587-0.48 1.067-1.066 1.067v1.066c1.177-0.004 2.129-0.957 2.133-2.133v-0c0-0.373-0.106-0.746-0.32-1.066l1.174-1.174c1.226 1.654 0.906 4-0.746 5.227-0.617 0.464-1.396 0.744-2.239 0.746h-0.001v1.066c0.005 0 0.011 0 0.016 0 2.64 0 4.78-2.14 4.78-4.78 0-1.143-0.401-2.193-1.071-3.015l0.007 0.009 1.12-1.12c2.294 2.666 1.974 6.72-0.746 9.014-1.12 0.96-2.614 1.493-4.106 1.493v1.067c0.003 0 0.007 0 0.011 0 4.117 0 7.455-3.338 7.455-7.455 0-0.004 0-0.009 0-0.013v0.001c0-1.813-0.64-3.52-1.814-4.906l0.96-0.96h2.454v-1.066h-2.134v-2.134h-1.066v2.454l-0.96 0.96c-3.147-2.667-7.84-2.347-10.56 0.746-1.174 1.386-1.814 3.094-1.814 4.906h1.067zM26.134 19.734h-4.694l-10.134-3.734h-1.173c-0.907 0-1.6 0.694-1.6 1.6v10.666c0 0.907 0.693 1.6 1.6 1.6h1.173l10.134-4.266h1.494v4.8c0 0.907 0.693 1.6 1.6 1.6s1.6-0.693 1.6-1.6v-4.8c0.906 0 1.6-0.694 1.6-1.6v-2.666c0-0.907-0.694-1.6-1.6-1.6zM11.734 17.28l9.066 3.36v4.054l-9.066 3.84v-11.254zM9.6 28.266v-10.666c0-0.32 0.214-0.534 0.534-0.534h0.533v11.734h-0.533c-0.32 0-0.534-0.214-0.534-0.534zM25.066 30.4c0 0.32-0.213 0.534-0.533 0.534s-0.534-0.214-0.534-0.534v-4.8h1.066v4.8zM26.666 24c0 0.32-0.213 0.534-0.533 0.534h-4.267v-3.734h4.267c0.32 0 0.533 0.214 0.533 0.534v2.666zM5.334 21.866h2.133v1.067h-2.133v-1.067zM5.497 17.985l0.754-0.754 1.584 1.584-0.754 0.754-1.584-1.584zM5.497 26.815l1.584-1.584 0.754 0.754-1.584 1.584-0.754-0.754z"></path>
<path d="M13.866 10.186v0.534c0 3.2 2.614 5.814 5.814 5.814h0.586v-6.4h-5.866l-0.534 0.053zM19.2 11.2v4.266c-2.24-0.213-4-2.026-4.214-4.266h4.214zM12.8 1.6h3.2v1.066h-3.2v-1.066zM29.866 11.2v10.134c0 0.32-0.213 0.533-0.533 0.533h-0.534v1.067h0.534c0.906 0 1.6-0.694 1.6-1.6v-10.134h-1.067zM2.134 21.334v-10.134h-1.067v10.134c0 0.906 0.694 1.6 1.6 1.6h1.6v-1.067h-1.6c-0.32 0-0.533-0.213-0.533-0.533z"></path>
</symbol>
<symbol id="icon-display" viewBox="0 0 32 32">
<path d="M30.4 0.022h-28.8c-0.884 0-1.6 0.716-1.6 1.6v0 19.2c0 0.884 0.716 1.6 1.6 1.6v0h9.066c1.473 0.001 2.666 1.195 2.667 2.667v0c-0.003 1.472-1.195 2.664-2.667 2.666h-0c-0.007 0-0.013 0.004-0.021 0.004-0.042 0.003-0.081 0.012-0.118 0.024l0.003-0.001c-0.034 0.007-0.063 0.015-0.090 0.026l0.004-0.001c-0.033 0.018-0.061 0.037-0.088 0.059l0.001-0.001c-0.029 0.019-0.055 0.039-0.078 0.061l0-0c-0.019 0.022-0.037 0.047-0.053 0.074l-0.001 0.003c-0.021 0.029-0.040 0.063-0.056 0.098l-0.001 0.003c0 0.006-0.008 0.010-0.009 0.017l-1.066 3.2c-0.017 0.050-0.027 0.108-0.027 0.168 0 0.295 0.239 0.534 0.534 0.534 0 0 0 0 0 0h12.8c0.294-0 0.533-0.239 0.533-0.534 0-0.060-0.010-0.118-0.028-0.172l0.001 0.004-1.067-3.2c0-0.007-0.007-0.011-0.009-0.017-0.017-0.038-0.036-0.071-0.059-0.102l0.001 0.001c-0.017-0.029-0.035-0.054-0.054-0.078l0.001 0.001c-0.023-0.022-0.049-0.041-0.076-0.059l-0.002-0.001c-0.025-0.021-0.054-0.040-0.084-0.056l-0.003-0.001c-0.024-0.009-0.053-0.018-0.084-0.024l-0.004-0.001c-0.033-0.012-0.072-0.020-0.112-0.023l-0.002-0c-0.008 0-0.013-0.004-0.021-0.004-1.471-0.003-2.663-1.195-2.666-2.666v-0c0.001-1.472 1.194-2.665 2.666-2.667h9.068c0.884 0 1.6-0.716 1.6-1.6v0-19.2c0-0.884-0.716-1.6-1.6-1.6v0zM17.6 25.090c0.003 1.923 1.457 3.505 3.325 3.71l0.017 0.002 0.718 2.154h-11.319l0.718-2.154c1.885-0.207 3.339-1.79 3.342-3.713v-0c0-0 0-0.001 0-0.001 0-1.045-0.431-1.99-1.125-2.665l-0.001-0.001h5.452c-0.695 0.676-1.126 1.621-1.126 2.666 0 0 0 0.001 0 0.001v-0zM30.934 20.823c0 0.294-0.239 0.533-0.534 0.533h-28.8c0 0 0 0 0 0-0.294 0-0.533-0.238-0.534-0.533v-1.6h29.867v1.6zM1.066 18.156v-16.534c0-0.294 0.239-0.533 0.534-0.533h28.8c0.294 0 0.534 0.239 0.534 0.533v16.534h-29.867z"></path>
<path d="M22.569 8.051l-1.535-0.513 0.723-1.448c0.036-0.069 0.056-0.152 0.056-0.238 0-0.147-0.060-0.281-0.157-0.377v0l-1.508-1.508c-0.096-0.097-0.23-0.156-0.377-0.156-0.087 0-0.169 0.021-0.241 0.057l0.003-0.001-1.449 0.724-0.512-1.536c-0.073-0.213-0.272-0.364-0.506-0.364h-2.133c-0.23 0-0.433 0.147-0.506 0.364l-0.512 1.536-1.449-0.724c-0.069-0.035-0.151-0.056-0.238-0.056-0.147 0-0.281 0.060-0.377 0.156v0l-1.508 1.508c-0.097 0.097-0.156 0.23-0.156 0.378 0 0.087 0.021 0.169 0.058 0.241l-0.001-0.003 0.723 1.448-1.535 0.513c-0.213 0.073-0.364 0.271-0.365 0.505v2.134c0 0.229 0.147 0.432 0.365 0.505l1.535 0.512-0.723 1.449c-0.035 0.069-0.056 0.151-0.056 0.238 0 0.147 0.060 0.281 0.156 0.377v0l1.508 1.508c0.097 0.097 0.23 0.156 0.377 0.156 0.087 0 0.168-0.021 0.241-0.057l-0.003 0.001 1.449-0.724 0.512 1.535c0.073 0.218 0.277 0.365 0.506 0.365h2.133c0.23 0 0.433-0.147 0.506-0.365l0.512-1.535 1.449 0.724c0.069 0.035 0.151 0.056 0.238 0.056 0.147 0 0.281-0.060 0.377-0.156l1.508-1.508c0.097-0.097 0.156-0.23 0.156-0.377 0-0.087-0.021-0.169-0.058-0.241l0.001 0.003-0.723-1.449 1.535-0.512c0.214-0.072 0.365-0.271 0.365-0.505v-2.134c0-0.229-0.147-0.432-0.365-0.505zM21.866 10.305l-1.755 0.587c-0.213 0.073-0.364 0.272-0.364 0.506 0 0.087 0.021 0.169 0.057 0.241l-0.001-0.003 0.828 1.654-0.965 0.964-1.654-0.827c-0.070-0.036-0.153-0.057-0.24-0.057-0.234 0-0.433 0.151-0.505 0.361l-0.001 0.004-0.584 1.755h-1.366l-0.586-1.756c-0.073-0.213-0.272-0.363-0.506-0.363-0.087 0-0.169 0.021-0.241 0.057l0.003-0.001-1.654 0.827-0.964-0.965 0.827-1.653c0.035-0.069 0.056-0.151 0.056-0.238 0-0.234-0.151-0.433-0.36-0.505l-0.004-0.001-1.756-0.587v-1.364l1.756-0.587c0.213-0.073 0.364-0.271 0.364-0.505 0-0.087-0.021-0.169-0.058-0.241l0.001 0.003-0.827-1.653 0.964-0.965 1.654 0.827c0.069 0.035 0.152 0.056 0.238 0.056 0.234 0 0.433-0.151 0.504-0.36l0.001-0.004 0.586-1.755h1.365l0.586 1.756c0.073 0.213 0.272 0.364 0.506 0.364 0.088 0 0.17-0.021 0.243-0.059l-0.003 0.001 1.654-0.827 0.965 0.965-0.828 1.653c-0.035 0.069-0.056 0.151-0.056 0.238 0 0.234 0.151 0.433 0.361 0.505l0.004 0.001 1.755 0.587-0.003 1.364z"></path>
<path d="M16 6.423c-1.767 0-3.2 1.433-3.2 3.2s1.433 3.2 3.2 3.2v0c1.767 0 3.2-1.433 3.2-3.2s-1.433-3.2-3.2-3.2v0zM16 11.756c-0.013 0-0.028 0-0.043 0-1.178 0-2.134-0.955-2.134-2.134s0.955-2.134 2.134-2.134c0.015 0 0.030 0 0.045 0l-0.002-0c1.16 0.024 2.091 0.97 2.091 2.133s-0.931 2.109-2.088 2.133l-0.002 0z"></path>
</symbol>
<symbol id="icon-home" viewBox="0 0 29 32">
<path d="M21.078 8.871c-0.098-0.111-0.239-0.181-0.397-0.183h-0c-0.158 0.002-0.299 0.073-0.396 0.183l-0 0.001c-0.102 0.116-0.164 0.27-0.164 0.438 0 0.001 0 0.002 0 0.003v-0c0 0.164 0.061 0.326 0.164 0.443s0.25 0.182 0.398 0.182c0.147 0 0.292-0.067 0.397-0.182s0.164-0.278 0.164-0.442-0.061-0.326-0.164-0.442zM8.43 17.625h-4.496c-0.311 0-0.562 0.279-0.562 0.625v4.999c0 0.346 0.251 0.625 0.562 0.625h4.496c0.31 0 0.562-0.279 0.562-0.624v-5c0-0.346-0.252-0.625-0.562-0.625zM7.868 22.625h-3.372v-3.75h3.373v3.75zM28.427 13.111c-0.064-0.030-0.138-0.047-0.217-0.047-0.158 0-0.3 0.070-0.395 0.182l-0.001 0.001-15.904 17.687c-0.102 0.118-0.165 0.273-0.165 0.443 0 0.086 0.016 0.168 0.045 0.244l-0.002-0.005c0.086 0.233 0.291 0.386 0.519 0.386h15.904c0.311 0 0.562-0.28 0.562-0.625v-17.686c0-0.005 0-0.010 0-0.015 0-0.245-0.14-0.457-0.343-0.561l-0.004-0.002zM27.65 30.75h-13.985l2.145-2.385 0.536 0.597c0.097 0.111 0.239 0.182 0.397 0.183h0c0.144 0 0.287-0.061 0.398-0.183 0.102-0.118 0.165-0.273 0.165-0.442s-0.062-0.324-0.165-0.443l0.001 0.001-0.536-0.597 1.43-1.591 0.536 0.597c0.097 0.112 0.239 0.182 0.398 0.183h0c0.144 0 0.288-0.061 0.398-0.183 0.102-0.118 0.165-0.273 0.165-0.442s-0.062-0.324-0.165-0.443l0.001 0.001-0.536-0.597 1.43-1.591 0.536 0.597c0.097 0.112 0.239 0.182 0.398 0.183h0c0.144 0 0.287-0.061 0.398-0.183 0.102-0.118 0.165-0.273 0.165-0.442s-0.062-0.324-0.165-0.443l0.001 0.001-0.536-0.597 1.43-1.59 0.536 0.597c0.097 0.112 0.239 0.182 0.398 0.183h0c0.144 0 0.287-0.061 0.398-0.183 0.102-0.118 0.165-0.273 0.165-0.442s-0.062-0.324-0.165-0.443l0.001 0.001-0.536-0.597 1.43-1.591 0.536 0.597c0.097 0.112 0.239 0.182 0.398 0.183h0c0.144 0 0.287-0.061 0.398-0.183 0.102-0.118 0.165-0.273 0.165-0.442s-0.062-0.324-0.166-0.443l0.001 0.001-0.536-0.597 2.145-2.384v15.554z"></path>
<path d="M25.617 20.655c-0.064-0.030-0.138-0.047-0.217-0.047-0.158 0-0.3 0.070-0.395 0.182l-0.001 0.001-6.31 7.018c-0.103 0.118-0.165 0.273-0.165 0.443 0 0.086 0.016 0.167 0.045 0.243l-0.002-0.005c0.087 0.233 0.291 0.386 0.519 0.386h6.311c0.311 0 0.562-0.28 0.562-0.625v-7.018c0-0.004 0-0.009 0-0.014 0-0.245-0.14-0.457-0.343-0.561l-0.004-0.002zM24.84 27.625h-4.392l4.392-4.885v4.884zM26.024 9.329c-0.096-0.112-0.238-0.183-0.397-0.183-0.070 0-0.137 0.014-0.197 0.039l0.003-0.001-3.837 1.563c-0.081 0.034-0.149 0.083-0.204 0.145l-0 0.001-1.079 1.2-7.045-7.836c-0.098-0.111-0.239-0.181-0.398-0.183h-0c-0.158 0.002-0.3 0.072-0.396 0.182l-0.001 0.001-8.481 9.431h-2.071l10.949-12.178 6.009 6.683c0.097 0.112 0.239 0.183 0.397 0.183s0.301-0.071 0.397-0.182l0.001-0.001c0.102-0.118 0.165-0.273 0.165-0.442s-0.062-0.324-0.165-0.443l0.001 0.001-6.406-7.125c-0.097-0.112-0.239-0.183-0.397-0.183s-0.301 0.071-0.397 0.182l-0.001 0.001-12.307 13.687c-0.103 0.118-0.165 0.273-0.165 0.443 0 0.086 0.016 0.167 0.045 0.243l-0.002-0.005c0.086 0.233 0.291 0.386 0.519 0.386h0.562v16.438c0 0.345 0.251 0.624 0.562 0.624h8.934c0.311 0 0.562-0.279 0.562-0.624s-0.251-0.625-0.562-0.625h-8.372v-15.812h1.976c0.158-0.002 0.3-0.072 0.396-0.183l0.001-0.001 8.248-9.173 6.647 7.394-8.334 9.269v-5.619h3.934c0.31 0 0.562-0.28 0.562-0.625s-0.252-0.624-0.562-0.624h-4.497c-0.31 0-0.562 0.279-0.562 0.624v7.25c0 0.073 0.012 0.143 0.033 0.208l-0.503 0.56c-0.89 0.989-0.89 2.599 0 3.588 0.445 0.495 1.029 0.742 1.613 0.742s1.169-0.247 1.614-0.742l4.739-5.271c0.102-0.118 0.165-0.273 0.165-0.442s-0.062-0.324-0.165-0.443l0.001 0.001c-0.097-0.113-0.239-0.183-0.398-0.183s-0.301 0.071-0.397 0.183l-0.001 0.001-3.589 3.993-1.638-1.821 10.268-11.42 1.637 1.821-3.923 4.363c-0.102 0.118-0.165 0.273-0.165 0.442s0.062 0.324 0.166 0.443l-0.001-0.001c0.097 0.112 0.239 0.183 0.397 0.183s0.301-0.071 0.397-0.182l0.001-0.001 4.31-4.793c0.056-0.063 0.101-0.139 0.128-0.222l0.001-0.005 1.405-4.268c0.022-0.064 0.035-0.138 0.035-0.215 0-0.17-0.062-0.325-0.165-0.443l0.001 0.001zM12.374 26.329l-0.355 0.393c-0.2 0.229-0.492 0.374-0.818 0.377h-0c-0.309 0-0.599-0.134-0.818-0.377-0.211-0.238-0.339-0.552-0.339-0.897 0-0.005 0-0.010 0-0.015v0.001c0-0.343 0.12-0.667 0.339-0.91l0.355-0.394 1.636 1.821zM24.002 12.886l-1.176-1.309 1.856-0.756-0.68 2.064z"></path>
<path d="M18.922 19.932c-0.098-0.111-0.239-0.181-0.397-0.183h-0c-0.158 0.002-0.299 0.073-0.396 0.183l-0 0.001c-0.102 0.117-0.164 0.271-0.164 0.439 0 0.001 0 0.001 0 0.002v-0c0 0.165 0.061 0.326 0.164 0.443s0.249 0.183 0.398 0.183c0.147 0 0.292-0.066 0.397-0.182 0.102-0.117 0.164-0.271 0.164-0.44 0-0.001 0-0.002 0-0.003v0c0-0.164-0.061-0.325-0.164-0.442zM12.869 9.437c-1.177 0-2.135 1.066-2.135 2.375s0.958 2.375 2.136 2.375c1.176 0 2.135-1.066 2.135-2.375s-0.958-2.375-2.136-2.375zM12.869 12.938c-0.558 0-1.012-0.504-1.012-1.124s0.454-1.126 1.012-1.126 1.012 0.505 1.012 1.125c0 0.621-0.454 1.125-1.012 1.125z"></path>
</symbol>
<symbol id="icon-list" viewBox="0 0 32 32">
<path d="M4.601 22.94c-0.239 0-0.432-0.194-0.432-0.432v0-15.905c0.041-2.187 1.824-3.945 4.017-3.945 0.008 0 0.017 0 0.025 0h18.446c0.239 0 0.432 0.194 0.432 0.432s-0.194 0.432-0.432 0.432v0h-18.448c-0.006-0-0.014-0-0.021-0-1.72 0-3.119 1.376-3.156 3.087l-0 0.003v15.895c0 0.239-0.194 0.432-0.432 0.432v0z"></path>
<path d="M25.748 10.744h-2.699c-0.239 0-0.432-0.194-0.432-0.432s0.194-0.432 0.432-0.432v0h1.764c-0.183-0.343-0.291-0.749-0.291-1.181 0-0.32 0.059-0.626 0.167-0.908l-0.006 0.017h-1.635c-0.239 0-0.432-0.194-0.432-0.432s0.194-0.432 0.432-0.432v0h2.319c0 0 0 0 0 0 0.239 0 0.432 0.194 0.432 0.432 0 0.089-0.027 0.172-0.073 0.24l0.001-0.002c-0.093 0.142-0.877 1.424 0.291 2.361 0.099 0.080 0.162 0.201 0.162 0.337 0 0.239-0.194 0.432-0.432 0.432-0 0-0 0-0 0v0z"></path>
<path d="M23.049 26.223c-0.239 0-0.432-0.194-0.432-0.432v0-19.189c0-0.239 0.194-0.432 0.432-0.432s0.432 0.194 0.432 0.432v0 19.189c0 0.239-0.194 0.432-0.432 0.432v0z"></path>
<path d="M3.716 29.342c-0.711 0-1.399-0.251-1.943-0.709-0.825-0.69-1.346-1.719-1.346-2.87 0-1.848 1.343-3.382 3.105-3.68l0.022-0.003c0.020-0.003 0.043-0.005 0.066-0.005 0.001 0 0.002 0 0.003 0h16.497c0.238 0.002 0.43 0.195 0.43 0.432 0 0.213-0.155 0.391-0.358 0.426l-0.003 0c-1.369 0.233-2.399 1.411-2.399 2.829 0 0.884 0.399 1.674 1.028 2.2l0.005 0.004c0.373 0.314 0.841 0.493 1.328 0.509h0.080c0.356-0.005 0.692-0.088 0.991-0.234l-0.014 0.006c0.837-0.389 1.407-1.223 1.407-2.189 0-0 0-0 0-0v0c0-0.239 0.194-0.432 0.432-0.432s0.432 0.194 0.432 0.432v0c0 0.002 0 0.004 0 0.006 0 1.309-0.77 2.438-1.883 2.959l-0.020 0.008c-0.414 0.196-0.865 0.301-1.323 0.307-0.014 0.002-0.031 0.003-0.048 0.003-0 0-0.001 0-0.001 0h-16.449c-0.011 0.001-0.025 0.002-0.038 0.002-0.001 0-0.002 0-0.003 0h0zM3.661 22.94c-1.354 0.247-2.367 1.418-2.367 2.824 0 0.886 0.401 1.677 1.032 2.204l0.005 0.004c0.363 0.306 0.833 0.495 1.346 0.505l0.002 0h14.415c-0.718-0.683-1.165-1.645-1.165-2.712 0-1.126 0.497-2.135 1.285-2.82l0.005-0.004-14.557-0.001zM26.658 10.744h-0.798c-0.239 0-0.432-0.194-0.432-0.432s0.194-0.432 0.432-0.432v0h0.797c0 0 0.001 0 0.001 0 1.755 0 3.178-1.423 3.178-3.178s-1.423-3.178-3.178-3.178c-1.724 0-3.128 1.373-3.177 3.086l-0 0.005c-0.002 0.235-0.193 0.424-0.428 0.424-0.065 0-0.127-0.014-0.182-0.040l0.003 0.001c-0.153-0.069-0.257-0.22-0.257-0.395 0-0.004 0-0.008 0-0.012v0.001c0.060-2.187 1.847-3.937 4.043-3.937 2.233 0 4.044 1.811 4.044 4.044s-1.811 4.044-4.044 4.044c-0.001 0-0.001 0-0.002 0h0v0.002zM20.556 7.279h-13.005c-0.239 0-0.432-0.194-0.432-0.432s0.194-0.432 0.432-0.432v0h13.005c0.239 0 0.432 0.194 0.432 0.432s-0.194 0.432-0.432 0.432v0zM20.556 11.183h-3.475c-0.239 0-0.432-0.194-0.432-0.432s0.194-0.432 0.432-0.432v0h3.475c0.239 0 0.432 0.194 0.432 0.432s-0.194 0.432-0.432 0.432v0zM8.541 11.183h-0.989c-0.239 0-0.432-0.194-0.432-0.432s0.194-0.432 0.432-0.432v0h0.989c0.239 0 0.432 0.194 0.432 0.432s-0.194 0.432-0.432 0.432v0zM20.556 15.085h-3.295c-0.239 0-0.432-0.194-0.432-0.432s0.194-0.432 0.432-0.432v0h3.295c0.239 0 0.432 0.194 0.432 0.432s-0.194 0.432-0.432 0.432v0zM8.046 15.085h-0.495c-0.239 0-0.432-0.194-0.432-0.432s0.194-0.432 0.432-0.432v0h0.495c0.239 0 0.432 0.194 0.432 0.432s-0.194 0.432-0.432 0.432v0zM20.556 18.988h-0.466c-0.239 0-0.432-0.194-0.432-0.432s0.194-0.432 0.432-0.432v0h0.466c0.239 0 0.432 0.194 0.432 0.432s-0.194 0.432-0.432 0.432v0zM13.387 18.988h-5.838c-0.239 0-0.432-0.194-0.432-0.432s0.194-0.432 0.432-0.432v0h5.838c0.239 0 0.432 0.194 0.432 0.432s-0.194 0.432-0.432 0.432v0zM12.517 17.254c-1.985 0-3.594-1.609-3.594-3.594s1.609-3.594 3.594-3.594v0c1.985 0 3.594 1.609 3.594 3.594s-1.609 3.594-3.594 3.594v0zM12.517 10.934c-1.504 0.004-2.723 1.224-2.723 2.729 0 1.507 1.222 2.729 2.729 2.729s2.729-1.222 2.729-2.729c0-1.133-0.691-2.105-1.674-2.518l-0.018-0.007c-0.307-0.131-0.664-0.207-1.039-0.207-0.002 0-0.004 0-0.007 0h0v0.002z"></path>
<path d="M11.669 14.093c-0.010 0-0.021 0-0.033 0-0.677 0-1.226-0.549-1.226-1.226s0.549-1.226 1.226-1.226c0.011 0 0.023 0 0.034 0l-0.002-0c0.663 0.018 1.193 0.56 1.193 1.225s-0.53 1.207-1.191 1.225l-0.002 0zM11.669 12.508c-0 0-0 0-0 0-0.199 0-0.361 0.162-0.361 0.361s0.161 0.361 0.361 0.361h0c0.199 0 0.361-0.162 0.361-0.361s-0.162-0.361-0.361-0.361v0zM17.257 20.327c-0 0-0 0-0.001 0-0.119 0-0.227-0.048-0.305-0.126v0l-3.367-3.367c-0.081-0.079-0.132-0.189-0.132-0.311 0-0.239 0.194-0.432 0.432-0.432 0.122 0 0.232 0.051 0.311 0.132l3.232 3.23 0.834-0.048 0.048-0.835-0.070-0.070-0.707-0.080c-0.2-0.024-0.357-0.181-0.38-0.379l-0-0.002-0.060-0.515-0.514-0.058c-0.2-0.023-0.358-0.18-0.381-0.378l-0-0.002-0.080-0.708-1.038-1.038c-0.075-0.078-0.121-0.184-0.121-0.3 0-0.239 0.194-0.432 0.432-0.432 0.117 0 0.223 0.046 0.301 0.121l1.143 1.144c0.069 0.069 0.112 0.16 0.123 0.257l0.060 0.515 0.515 0.058c0.2 0.023 0.357 0.181 0.38 0.378l0 0.002 0.059 0.516 0.516 0.059c0.101 0.012 0.19 0.057 0.257 0.124v0l0.314 0.315c0.078 0.079 0.127 0.187 0.127 0.307 0 0.008-0 0.017-0.001 0.025l0-0.001-0.083 1.413c-0.013 0.219-0.188 0.393-0.405 0.406l-0.001 0-1.437 0.082z"></path>
</symbol>
</defs>
</svg>
